<?xml version="1.0" encoding="UTF-8" standalone="no"?>
<!DOCTYPE svg PUBLIC "-//W3C//DTD SVG 1.1//EN"
 "http://www.w3.org/Graphics/SVG/1.1/DTD/svg11.dtd">
<!-- Generated by graphviz version 2.43.0 (0)
 -->
<!-- Title: models_diagram Pages: 1 -->
<svg width="662pt" height="356pt"
 viewBox="0.00 0.00 662.08 356.00" xmlns="http://www.w3.org/2000/svg" xmlns:xlink="http://www.w3.org/1999/xlink">
<g id="graph0" class="graph" transform="scale(1 1) rotate(0) translate(4 352)">
<title>models_diagram</title>
<polygon fill="transparent" stroke="transparent" points="-4,4 -4,-352 658.08,-352 658.08,4 -4,4"/>
<!-- _diagram_info -->
<g id="node1" class="node">
<title>_diagram_info</title>
<text text-anchor="start" x="8" y="-333.6" font-family="Times,serif" font-size="13.00">Models diagram</text>
<text text-anchor="start" x="8" y="-320.6" font-family="Times,serif" font-size="13.00">Date: Jan 20 2020 &#45; 16:23</text>
<text text-anchor="start" x="8" y="-307.6" font-family="Times,serif" font-size="13.00">Migration version: 20200120192833</text>
<text text-anchor="start" x="8" y="-294.6" font-family="Times,serif" font-size="13.00">Generated by RailRoady 1.5.3</text>
<text text-anchor="start" x="8" y="-281.6" font-family="Times,serif" font-size="13.00">http://railroady.prestonlee.com</text>
</g>
<!-- Like -->
<g id="node2" class="node">
<title>Like</title>
<path fill="none" stroke="black" d="M184.18,-0.5C184.18,-0.5 293.19,-0.5 293.19,-0.5 299.19,-0.5 305.19,-6.5 305.19,-12.5 305.19,-12.5 305.19,-88.5 305.19,-88.5 305.19,-94.5 299.19,-100.5 293.19,-100.5 293.19,-100.5 184.18,-100.5 184.18,-100.5 178.18,-100.5 172.18,-94.5 172.18,-88.5 172.18,-88.5 172.18,-12.5 172.18,-12.5 172.18,-6.5 178.18,-0.5 184.18,-0.5"/>
<text text-anchor="middle" x="238.69" y="-85.3" font-family="Times,serif" font-size="14.00">Like</text>
<polyline fill="none" stroke="black" points="172.18,-78.5 305.19,-78.5 "/>
<text text-anchor="start" x="180.18" y="-63.3" font-family="Times,serif" font-size="14.00">id :INTEGER</text>
<text text-anchor="start" x="180.18" y="-49.3" font-family="Times,serif" font-size="14.00">post_id :integer</text>
<text text-anchor="start" x="180.18" y="-35.3" font-family="Times,serif" font-size="14.00">user_id :integer</text>
<text text-anchor="start" x="180.18" y="-21.3" font-family="Times,serif" font-size="14.00">created_at :datetime</text>
<text text-anchor="start" x="180.18" y="-7.3" font-family="Times,serif" font-size="14.00">updated_at :datetime</text>
</g>
<!-- Comment -->
<g id="node3" class="node">
<title>Comment</title>
<path fill="none" stroke="black" d="M378.18,-0.5C378.18,-0.5 487.19,-0.5 487.19,-0.5 493.19,-0.5 499.19,-6.5 499.19,-12.5 499.19,-12.5 499.19,-88.5 499.19,-88.5 499.19,-94.5 493.19,-100.5 487.19,-100.5 487.19,-100.5 378.18,-100.5 378.18,-100.5 372.18,-100.5 366.18,-94.5 366.18,-88.5 366.18,-88.5 366.18,-12.5 366.18,-12.5 366.18,-6.5 372.18,-0.5 378.18,-0.5"/>
<text text-anchor="middle" x="432.69" y="-85.3" font-family="Times,serif" font-size="14.00">Comment</text>
<polyline fill="none" stroke="black" points="366.18,-78.5 499.19,-78.5 "/>
<text text-anchor="start" x="374.18" y="-63.3" font-family="Times,serif" font-size="14.00">id :INTEGER</text>
<text text-anchor="start" x="374.18" y="-49.3" font-family="Times,serif" font-size="14.00">post_id :integer</text>
<text text-anchor="start" x="374.18" y="-35.3" font-family="Times,serif" font-size="14.00">user_id :integer</text>
<text text-anchor="start" x="374.18" y="-21.3" font-family="Times,serif" font-size="14.00">created_at :datetime</text>
<text text-anchor="start" x="374.18" y="-7.3" font-family="Times,serif" font-size="14.00">updated_at :datetime</text>
</g>
<!-- Friendship -->
<g id="node4" class="node">
<title>Friendship</title>
<path fill="none" stroke="black" d="M235.45,-138.5C235.45,-138.5 335.92,-138.5 335.92,-138.5 341.92,-138.5 347.92,-144.5 347.92,-150.5 347.92,-150.5 347.92,-212.5 347.92,-212.5 347.92,-218.5 341.92,-224.5 335.92,-224.5 335.92,-224.5 235.45,-224.5 235.45,-224.5 229.45,-224.5 223.45,-218.5 223.45,-212.5 223.45,-212.5 223.45,-150.5 223.45,-150.5 223.45,-144.5 229.45,-138.5 235.45,-138.5"/>
<text text-anchor="middle" x="285.69" y="-209.3" font-family="Times,serif" font-size="14.00">Friendship</text>
<polyline fill="none" stroke="black" points="223.45,-202.5 347.92,-202.5 "/>
<text text-anchor="start" x="231.45" y="-187.3" font-family="Times,serif" font-size="14.00">id :INTEGER</text>
<text text-anchor="start" x="231.45" y="-173.3" font-family="Times,serif" font-size="14.00">user_id :integer</text>
<text text-anchor="start" x="231.45" y="-159.3" font-family="Times,serif" font-size="14.00">friend_id :integer</text>
<text text-anchor="start" x="231.45" y="-145.3" font-family="Times,serif" font-size="14.00">confirmed :boolean</text>
</g>
<!-- ApplicationRecord -->
<g id="node5" class="node">
<title>ApplicationRecord</title>
<ellipse fill="none" stroke="black" cx="576.69" cy="-311.5" rx="77.29" ry="18"/>
<text text-anchor="middle" x="576.69" y="-307.3" font-family="Times,serif" font-size="14.00">ApplicationRecord</text>
</g>
<!-- Post -->
<g id="node6" class="node">
<title>Post</title>
<path fill="none" stroke="black" d="M378.18,-138.5C378.18,-138.5 487.19,-138.5 487.19,-138.5 493.19,-138.5 499.19,-144.5 499.19,-150.5 499.19,-150.5 499.19,-212.5 499.19,-212.5 499.19,-218.5 493.19,-224.5 487.19,-224.5 487.19,-224.5 378.18,-224.5 378.18,-224.5 372.18,-224.5 366.18,-218.5 366.18,-212.5 366.18,-212.5 366.18,-150.5 366.18,-150.5 366.18,-144.5 372.18,-138.5 378.18,-138.5"/>
<text text-anchor="middle" x="432.69" y="-209.3" font-family="Times,serif" font-size="14.00">Post</text>
<polyline fill="none" stroke="black" points="366.18,-202.5 499.19,-202.5 "/>
<text text-anchor="start" x="374.18" y="-187.3" font-family="Times,serif" font-size="14.00">id :INTEGER</text>
<text text-anchor="start" x="374.18" y="-173.3" font-family="Times,serif" font-size="14.00">user_id :integer</text>
<text text-anchor="start" x="374.18" y="-159.3" font-family="Times,serif" font-size="14.00">created_at :datetime</text>
<text text-anchor="start" x="374.18" y="-145.3" font-family="Times,serif" font-size="14.00">updated_at :datetime</text>
</g>
<!-- Post&#45;&gt;Like -->
<g id="edge2" class="edge">
<title>Post&#45;&gt;Like</title>
<path fill="none" stroke="#4c9cd6" d="M362.64,-133.93C346.94,-123.48 330.2,-112.35 314.28,-101.76"/>
<ellipse fill="none" stroke="#4c9cd6" cx="366.1" cy="-136.22" rx="4" ry="4"/>
<polygon fill="#4c9cd6" stroke="#4c9cd6" points="313.85,-101.48 308.02,-92.2 309.69,-98.71 305.53,-95.94 305.53,-95.94 305.53,-95.94 309.69,-98.71 303.04,-99.69 313.85,-101.48 313.85,-101.48"/>
</g>
<!-- Post&#45;&gt;Comment -->
<g id="edge1" class="edge">
<title>Post&#45;&gt;Comment</title>
<path fill="none" stroke="#fa818e" d="M432.69,-130.2C432.69,-123.81 432.69,-117.22 432.69,-110.7"/>
<ellipse fill="none" stroke="#fa818e" cx="432.69" cy="-134.26" rx="4" ry="4"/>
<polygon fill="#fa818e" stroke="#fa818e" points="432.69,-110.56 437.19,-100.56 432.69,-105.56 432.69,-100.56 432.69,-100.56 432.69,-100.56 432.69,-105.56 428.19,-100.56 432.69,-110.56 432.69,-110.56"/>
</g>
<!-- User -->
<g id="node7" class="node">
<title>User</title>
<path fill="none" stroke="black" d="M237.85,-282.5C237.85,-282.5 309.52,-282.5 309.52,-282.5 315.52,-282.5 321.52,-288.5 321.52,-294.5 321.52,-294.5 321.52,-328.5 321.52,-328.5 321.52,-334.5 315.52,-340.5 309.52,-340.5 309.52,-340.5 237.85,-340.5 237.85,-340.5 231.85,-340.5 225.85,-334.5 225.85,-328.5 225.85,-328.5 225.85,-294.5 225.85,-294.5 225.85,-288.5 231.85,-282.5 237.85,-282.5"/>
<text text-anchor="middle" x="273.69" y="-325.3" font-family="Times,serif" font-size="14.00">User</text>
<polyline fill="none" stroke="black" points="225.85,-318.5 321.52,-318.5 "/>
<text text-anchor="start" x="233.85" y="-303.3" font-family="Times,serif" font-size="14.00">id :INTEGER</text>
<text text-anchor="start" x="233.85" y="-289.3" font-family="Times,serif" font-size="14.00">name :varchar</text>
</g>
<!-- User&#45;&gt;Like -->
<g id="edge4" class="edge">
<title>User&#45;&gt;Like</title>
<path fill="none" stroke="#47c02c" d="M242.72,-275.91C231.61,-261.27 220.41,-243.37 214.69,-225 203.12,-187.87 209.1,-144.55 217.98,-110.48"/>
<ellipse fill="none" stroke="#47c02c" cx="245.34" cy="-279.25" rx="4" ry="4"/>
<polygon fill="#47c02c" stroke="#47c02c" points="218.02,-110.31 225.02,-101.87 219.35,-105.49 220.68,-100.67 220.68,-100.67 220.68,-100.67 219.35,-105.49 216.34,-99.48 218.02,-110.31 218.02,-110.31"/>
</g>
<!-- User&#45;&gt;Friendship -->
<g id="edge5" class="edge">
<title>User&#45;&gt;Friendship</title>
<path fill="none" stroke="#714316" d="M272.15,-274.19C271.96,-268.44 271.79,-262.56 271.69,-257 271.57,-250.78 270.98,-249.18 271.69,-243 272,-240.28 272.38,-237.51 272.83,-234.72"/>
<ellipse fill="none" stroke="#714316" cx="272.3" cy="-278.46" rx="4" ry="4"/>
<polygon fill="#714316" stroke="#714316" points="272.88,-234.44 279.09,-225.4 273.77,-229.52 274.66,-224.6 274.66,-224.6 274.66,-224.6 273.77,-229.52 270.23,-223.8 272.88,-234.44 272.88,-234.44"/>
</g>
<!-- User&#45;&gt;Friendship -->
<g id="edge7" class="edge">
<title>User&#45;&gt;Friendship</title>
<path fill="none" stroke="#dc4c3b" d="M277.1,-274.14C278.25,-261.85 279.56,-247.87 280.8,-234.6"/>
<ellipse fill="none" stroke="#dc4c3b" cx="276.69" cy="-278.43" rx="4" ry="4"/>
<polygon fill="#dc4c3b" stroke="#dc4c3b" points="280.8,-234.59 286.22,-225.06 281.27,-229.61 281.74,-224.64 281.74,-224.64 281.74,-224.64 281.27,-229.61 277.26,-224.21 280.8,-234.59 280.8,-234.59"/>
<text text-anchor="middle" x="334.5" y="-245.8" font-family="Times,serif" font-size="14.00">reverse_friendships</text>
</g>
<!-- User&#45;&gt;Post -->
<g id="edge3" class="edge">
<title>User&#45;&gt;Post</title>
<path fill="none" stroke="#8707f9" d="M329.48,-294.5C351.46,-286.07 375.69,-273.9 393.69,-257 400.8,-250.32 406.85,-242.06 411.92,-233.49"/>
<ellipse fill="none" stroke="#8707f9" cx="325.57" cy="-295.94" rx="4" ry="4"/>
<polygon fill="#8707f9" stroke="#8707f9" points="412.04,-233.27 420.79,-226.67 414.44,-228.89 416.84,-224.51 416.84,-224.51 416.84,-224.51 414.44,-228.89 412.9,-222.34 412.04,-233.27 412.04,-233.27"/>
</g>
<!-- User&#45;&gt;User -->
<g id="edge6" class="edge">
<title>User&#45;&gt;User</title>
<path fill="none" stroke="#c1be68" d="M331.85,-315.82C336.58,-314.88 339.52,-313.44 339.52,-311.5 339.52,-309.56 336.58,-308.12 331.85,-307.18"/>
<polygon fill="#c1be68" stroke="#c1be68" points="331.56,-315.85 321.12,-312.49 326.59,-316.4 321.62,-316.96 321.62,-316.96 321.62,-316.96 326.59,-316.4 322.12,-321.43 331.56,-315.85 331.56,-315.85"/>
<polygon fill="#c1be68" stroke="#c1be68" points="331.56,-307.15 322.12,-301.57 326.59,-306.6 321.62,-306.04 321.62,-306.04 321.62,-306.04 326.59,-306.6 321.12,-310.51 331.56,-307.15 331.56,-307.15"/>
<text text-anchor="middle" x="358.96" y="-307.3" font-family="Times,serif" font-size="14.00">friends</text>
</g>
<!-- User&#45;&gt;User -->
<g id="edge8" class="edge">
<title>User&#45;&gt;User</title>
<path fill="none" stroke="#96a4f1" d="M331.87,-322.7C356.52,-323.24 378.4,-319.51 378.4,-311.5 378.4,-303.49 356.52,-299.76 331.87,-300.3"/>
<polygon fill="#96a4f1" stroke="#96a4f1" points="331.56,-322.68 321.78,-317.74 326.57,-322.46 321.57,-322.23 321.57,-322.23 321.57,-322.23 326.57,-322.46 321.37,-326.73 331.56,-322.68 331.56,-322.68"/>
<polygon fill="#96a4f1" stroke="#96a4f1" points="331.56,-300.32 321.37,-296.27 326.57,-300.54 321.57,-300.77 321.57,-300.77 321.57,-300.77 326.57,-300.54 321.78,-305.26 331.56,-300.32 331.56,-300.32"/>
<text text-anchor="middle" x="421.55" y="-307.3" font-family="Times,serif" font-size="14.00">reverse_friends</text>
</g>
</g>
</svg>
