<?xml version="1.0" encoding="UTF-8" standalone="no"?>
<!DOCTYPE svg PUBLIC "-//W3C//DTD SVG 1.1//EN"
 "http://www.w3.org/Graphics/SVG/1.1/DTD/svg11.dtd">
<!-- Generated by graphviz version 2.43.0 (0)
 -->
<!-- Title: models_diagram Pages: 1 -->
<svg width="662pt" height="356pt"
 viewBox="0.00 0.00 662.08 356.00" xmlns="http://www.w3.org/2000/svg" xmlns:xlink="http://www.w3.org/1999/xlink">
<g id="graph0" class="graph" transform="scale(1 1) rotate(0) translate(4 352)">
<title>models_diagram</title>
<polygon fill="transparent" stroke="transparent" points="-4,4 -4,-352 658.08,-352 658.08,4 -4,4"/>
<!-- _diagram_info -->
<g id="node1" class="node">
<title>_diagram_info</title>
<text text-anchor="start" x="8" y="-333.6" font-family="Times,serif" font-size="13.00">Models diagram</text>
<text text-anchor="start" x="8" y="-320.6" font-family="Times,serif" font-size="13.00">Date: Jan 20 2020 &#45; 15:46</text>
<text text-anchor="start" x="8" y="-307.6" font-family="Times,serif" font-size="13.00">Migration version: 20200120192833</text>
<text text-anchor="start" x="8" y="-294.6" font-family="Times,serif" font-size="13.00">Generated by RailRoady 1.5.3</text>
<text text-anchor="start" x="8" y="-281.6" font-family="Times,serif" font-size="13.00">http://railroady.prestonlee.com</text>
</g>
<!-- Like -->
<g id="node2" class="node">
<title>Like</title>
<path fill="none" stroke="black" d="M268.18,-0.5C268.18,-0.5 377.19,-0.5 377.19,-0.5 383.19,-0.5 389.19,-6.5 389.19,-12.5 389.19,-12.5 389.19,-88.5 389.19,-88.5 389.19,-94.5 383.19,-100.5 377.19,-100.5 377.19,-100.5 268.18,-100.5 268.18,-100.5 262.18,-100.5 256.18,-94.5 256.18,-88.5 256.18,-88.5 256.18,-12.5 256.18,-12.5 256.18,-6.5 262.18,-0.5 268.18,-0.5"/>
<text text-anchor="middle" x="322.69" y="-85.3" font-family="Times,serif" font-size="14.00">Like</text>
<polyline fill="none" stroke="black" points="256.18,-78.5 389.19,-78.5 "/>
<text text-anchor="start" x="264.18" y="-63.3" font-family="Times,serif" font-size="14.00">id :INTEGER</text>
<text text-anchor="start" x="264.18" y="-49.3" font-family="Times,serif" font-size="14.00">post_id :integer</text>
<text text-anchor="start" x="264.18" y="-35.3" font-family="Times,serif" font-size="14.00">user_id :integer</text>
<text text-anchor="start" x="264.18" y="-21.3" font-family="Times,serif" font-size="14.00">created_at :datetime</text>
<text text-anchor="start" x="264.18" y="-7.3" font-family="Times,serif" font-size="14.00">updated_at :datetime</text>
</g>
<!-- Comment -->
<g id="node3" class="node">
<title>Comment</title>
<path fill="none" stroke="black" d="M419.18,-0.5C419.18,-0.5 528.19,-0.5 528.19,-0.5 534.19,-0.5 540.19,-6.5 540.19,-12.5 540.19,-12.5 540.19,-88.5 540.19,-88.5 540.19,-94.5 534.19,-100.5 528.19,-100.5 528.19,-100.5 419.18,-100.5 419.18,-100.5 413.18,-100.5 407.18,-94.5 407.18,-88.5 407.18,-88.5 407.18,-12.5 407.18,-12.5 407.18,-6.5 413.18,-0.5 419.18,-0.5"/>
<text text-anchor="middle" x="473.69" y="-85.3" font-family="Times,serif" font-size="14.00">Comment</text>
<polyline fill="none" stroke="black" points="407.18,-78.5 540.19,-78.5 "/>
<text text-anchor="start" x="415.18" y="-63.3" font-family="Times,serif" font-size="14.00">id :INTEGER</text>
<text text-anchor="start" x="415.18" y="-49.3" font-family="Times,serif" font-size="14.00">post_id :integer</text>
<text text-anchor="start" x="415.18" y="-35.3" font-family="Times,serif" font-size="14.00">user_id :integer</text>
<text text-anchor="start" x="415.18" y="-21.3" font-family="Times,serif" font-size="14.00">created_at :datetime</text>
<text text-anchor="start" x="415.18" y="-7.3" font-family="Times,serif" font-size="14.00">updated_at :datetime</text>
</g>
<!-- Friendship -->
<g id="node4" class="node">
<title>Friendship</title>
<path fill="none" stroke="black" d="M196.45,-138.5C196.45,-138.5 296.92,-138.5 296.92,-138.5 302.92,-138.5 308.92,-144.5 308.92,-150.5 308.92,-150.5 308.92,-212.5 308.92,-212.5 308.92,-218.5 302.92,-224.5 296.92,-224.5 296.92,-224.5 196.45,-224.5 196.45,-224.5 190.45,-224.5 184.45,-218.5 184.45,-212.5 184.45,-212.5 184.45,-150.5 184.45,-150.5 184.45,-144.5 190.45,-138.5 196.45,-138.5"/>
<text text-anchor="middle" x="246.69" y="-209.3" font-family="Times,serif" font-size="14.00">Friendship</text>
<polyline fill="none" stroke="black" points="184.45,-202.5 308.92,-202.5 "/>
<text text-anchor="start" x="192.45" y="-187.3" font-family="Times,serif" font-size="14.00">id :INTEGER</text>
<text text-anchor="start" x="192.45" y="-173.3" font-family="Times,serif" font-size="14.00">user_id :integer</text>
<text text-anchor="start" x="192.45" y="-159.3" font-family="Times,serif" font-size="14.00">friend_id :integer</text>
<text text-anchor="start" x="192.45" y="-145.3" font-family="Times,serif" font-size="14.00">confirmed :boolean</text>
</g>
<!-- ApplicationRecord -->
<g id="node5" class="node">
<title>ApplicationRecord</title>
<ellipse fill="none" stroke="black" cx="576.69" cy="-311.5" rx="77.29" ry="18"/>
<text text-anchor="middle" x="576.69" y="-307.3" font-family="Times,serif" font-size="14.00">ApplicationRecord</text>
</g>
<!-- Post -->
<g id="node6" class="node">
<title>Post</title>
<path fill="none" stroke="black" d="M344.18,-138.5C344.18,-138.5 453.19,-138.5 453.19,-138.5 459.19,-138.5 465.19,-144.5 465.19,-150.5 465.19,-150.5 465.19,-212.5 465.19,-212.5 465.19,-218.5 459.19,-224.5 453.19,-224.5 453.19,-224.5 344.18,-224.5 344.18,-224.5 338.18,-224.5 332.18,-218.5 332.18,-212.5 332.18,-212.5 332.18,-150.5 332.18,-150.5 332.18,-144.5 338.18,-138.5 344.18,-138.5"/>
<text text-anchor="middle" x="398.69" y="-209.3" font-family="Times,serif" font-size="14.00">Post</text>
<polyline fill="none" stroke="black" points="332.18,-202.5 465.19,-202.5 "/>
<text text-anchor="start" x="340.18" y="-187.3" font-family="Times,serif" font-size="14.00">id :INTEGER</text>
<text text-anchor="start" x="340.18" y="-173.3" font-family="Times,serif" font-size="14.00">user_id :integer</text>
<text text-anchor="start" x="340.18" y="-159.3" font-family="Times,serif" font-size="14.00">created_at :datetime</text>
<text text-anchor="start" x="340.18" y="-145.3" font-family="Times,serif" font-size="14.00">updated_at :datetime</text>
</g>
<!-- Post&#45;&gt;Like -->
<g id="edge2" class="edge">
<title>Post&#45;&gt;Like</title>
<path fill="none" stroke="#7251fc" d="M369.57,-131.08C365.43,-124.04 361.13,-116.75 356.9,-109.57"/>
<ellipse fill="none" stroke="#7251fc" cx="371.77" cy="-134.81" rx="4" ry="4"/>
<polygon fill="#7251fc" stroke="#7251fc" points="356.67,-109.17 355.47,-98.27 354.13,-104.86 351.59,-100.56 351.59,-100.56 351.59,-100.56 354.13,-104.86 347.71,-102.84 356.67,-109.17 356.67,-109.17"/>
</g>
<!-- Post&#45;&gt;Comment -->
<g id="edge1" class="edge">
<title>Post&#45;&gt;Comment</title>
<path fill="none" stroke="#8cb8dd" d="M427.42,-131.08C431.51,-124.04 435.75,-116.75 439.93,-109.57"/>
<ellipse fill="none" stroke="#8cb8dd" cx="425.26" cy="-134.8" rx="4" ry="4"/>
<polygon fill="#8cb8dd" stroke="#8cb8dd" points="440.14,-109.2 449.06,-102.82 442.65,-104.88 445.17,-100.56 445.17,-100.56 445.17,-100.56 442.65,-104.88 441.28,-98.3 440.14,-109.2 440.14,-109.2"/>
</g>
<!-- User -->
<g id="node7" class="node">
<title>User</title>
<path fill="none" stroke="black" d="M237.85,-282.5C237.85,-282.5 309.52,-282.5 309.52,-282.5 315.52,-282.5 321.52,-288.5 321.52,-294.5 321.52,-294.5 321.52,-328.5 321.52,-328.5 321.52,-334.5 315.52,-340.5 309.52,-340.5 309.52,-340.5 237.85,-340.5 237.85,-340.5 231.85,-340.5 225.85,-334.5 225.85,-328.5 225.85,-328.5 225.85,-294.5 225.85,-294.5 225.85,-288.5 231.85,-282.5 237.85,-282.5"/>
<text text-anchor="middle" x="273.69" y="-325.3" font-family="Times,serif" font-size="14.00">User</text>
<polyline fill="none" stroke="black" points="225.85,-318.5 321.52,-318.5 "/>
<text text-anchor="start" x="233.85" y="-303.3" font-family="Times,serif" font-size="14.00">id :INTEGER</text>
<text text-anchor="start" x="233.85" y="-289.3" font-family="Times,serif" font-size="14.00">name :varchar</text>
</g>
<!-- User&#45;&gt;Friendship -->
<g id="edge4" class="edge">
<title>User&#45;&gt;Friendship</title>
<path fill="none" stroke="#17e399" d="M259.62,-274.52C257.73,-268.73 256,-262.75 254.69,-257 253.06,-249.85 251.76,-242.24 250.72,-234.71"/>
<ellipse fill="none" stroke="#17e399" cx="260.98" cy="-278.48" rx="4" ry="4"/>
<polygon fill="#17e399" stroke="#17e399" points="250.69,-234.48 253.93,-224 250.08,-229.51 249.47,-224.55 249.47,-224.55 249.47,-224.55 250.08,-229.51 245,-225.1 250.69,-234.48 250.69,-234.48"/>
</g>
<!-- User&#45;&gt;Friendship -->
<g id="edge6" class="edge">
<title>User&#45;&gt;Friendship</title>
<path fill="none" stroke="#4e7d1a" d="M266.11,-274.57C263.5,-262.2 260.52,-248.09 257.7,-234.7"/>
<ellipse fill="none" stroke="#4e7d1a" cx="266.94" cy="-278.5" rx="4" ry="4"/>
<polygon fill="#4e7d1a" stroke="#4e7d1a" points="257.64,-234.42 259.98,-223.71 256.61,-229.53 255.58,-224.64 255.58,-224.64 255.58,-224.64 256.61,-229.53 251.17,-225.56 257.64,-234.42 257.64,-234.42"/>
<text text-anchor="middle" x="317.5" y="-245.8" font-family="Times,serif" font-size="14.00">reverse_friendships</text>
</g>
<!-- User&#45;&gt;Post -->
<g id="edge3" class="edge">
<title>User&#45;&gt;Post</title>
<path fill="none" stroke="#797a8f" d="M329.08,-291.71C346.41,-283.44 364.24,-272.1 376.69,-257 382.11,-250.42 386.2,-242.54 389.28,-234.41"/>
<ellipse fill="none" stroke="#797a8f" cx="325.34" cy="-293.41" rx="4" ry="4"/>
<polygon fill="#797a8f" stroke="#797a8f" points="389.32,-234.31 396.73,-226.22 390.88,-229.56 392.45,-224.81 392.45,-224.81 392.45,-224.81 390.88,-229.56 388.18,-223.4 389.32,-234.31 389.32,-234.31"/>
</g>
<!-- User&#45;&gt;User -->
<g id="edge5" class="edge">
<title>User&#45;&gt;User</title>
<path fill="none" stroke="#c32488" d="M331.85,-315.82C336.58,-314.88 339.52,-313.44 339.52,-311.5 339.52,-309.56 336.58,-308.12 331.85,-307.18"/>
<polygon fill="#c32488" stroke="#c32488" points="331.56,-315.85 321.12,-312.49 326.59,-316.4 321.62,-316.96 321.62,-316.96 321.62,-316.96 326.59,-316.4 322.12,-321.43 331.56,-315.85 331.56,-315.85"/>
<polygon fill="#c32488" stroke="#c32488" points="331.56,-307.15 322.12,-301.57 326.59,-306.6 321.62,-306.04 321.62,-306.04 321.62,-306.04 326.59,-306.6 321.12,-310.51 331.56,-307.15 331.56,-307.15"/>
<text text-anchor="middle" x="358.96" y="-307.3" font-family="Times,serif" font-size="14.00">friends</text>
</g>
<!-- User&#45;&gt;User -->
<g id="edge7" class="edge">
<title>User&#45;&gt;User</title>
<path fill="none" stroke="#3645e1" d="M331.87,-322.7C356.52,-323.24 378.4,-319.51 378.4,-311.5 378.4,-303.49 356.52,-299.76 331.87,-300.3"/>
<polygon fill="#3645e1" stroke="#3645e1" points="331.56,-322.68 321.78,-317.74 326.57,-322.46 321.57,-322.23 321.57,-322.23 321.57,-322.23 326.57,-322.46 321.37,-326.73 331.56,-322.68 331.56,-322.68"/>
<polygon fill="#3645e1" stroke="#3645e1" points="331.56,-300.32 321.37,-296.27 326.57,-300.54 321.57,-300.77 321.57,-300.77 321.57,-300.77 326.57,-300.54 321.78,-305.26 331.56,-300.32 331.56,-300.32"/>
<text text-anchor="middle" x="421.55" y="-307.3" font-family="Times,serif" font-size="14.00">reverse_friends</text>
</g>
</g>
</svg>
